<?xml version="1.0" encoding="utf-8"?>
<!-- Generator: Adobe Illustrator 25.2.3, SVG Export Plug-In . SVG Version: 6.00 Build 0)  -->
<svg version="1.1" xmlns="http://www.w3.org/2000/svg" xmlns:xlink="http://www.w3.org/1999/xlink" x="0px" y="0px"
	 viewBox="0 0 503.5 509.6" style="enable-background:new 0 0 503.5 509.6;" xml:space="preserve">
<style type="text/css">
	.st0{fill:none;}
	.st1{fill:#898DC4;}
	.st2{fill:#4F5A89;}
	.st3{fill:#5B8FA9;}
	.st4{fill:#619EB7;}
	.st5{fill:#4F8096;}
	.st6{fill:#6F83B4;}
	.st7{fill:#4E447F;}
	.st8{fill:#7469AF;}
	.st9{fill:#7959A4;}
	.st10{fill:#4D8AA3;}
	.st11{fill:#3F5385;}
	.st12{fill:#427791;}
	.st13{fill:#657CAE;}
	.st14{fill:#4F91AF;}
	.st15{fill:#3A3577;}
	.st16{fill:#7A7CBC;}
	.st17{fill:#40357A;}
	.st18{fill:#6C5EA7;}
	.st19{fill:#FDFFFF;}
</style>
<g id="flower">
	<path class="st0" d="M246.7,265.6c-0.2,0.5-0.5,1.1-0.9,1.9c1.9-1,3.4-1.9,4.6-2.5c-0.2-0.4-0.3-0.7-0.4-0.8
		C249.1,264.6,248,265.1,246.7,265.6z"/>
	<polygon class="st0" points="250.3,264.1 250.3,264.1 250.3,264.1 	"/>
	<path class="st1" d="M215.1,86.8C239.3,119,250,165,252.7,202.9c3.7-37.1,15.4-80.8,39.3-111.5c6.8-8.7,15.9-17.1,28.8-21.8
		C299.5,34,254.7,0,254.7,0l0,0v0c0,0-41.9,31.8-64,66.1C201.7,70.9,209.2,79,215.1,86.8z"/>
	<path class="st2" d="M250.5,265.1C250.4,265.1,250.4,265,250.5,265.1c-1.2,0.5-2.8,1.4-4.7,2.4c-8.2,17.7-54.8,104.1-116.3,132.7
		c-4.6,2.2-6.9,6.4-12.5,7c1.2,43,36.6,102.3,36.6,102.3l0,0l0,0c0,0,69.6-18.9,99.4-50.2c-4.4-4.6-5.9-11.6-8.1-16.8
		C216.3,375.3,248.4,271.4,250.5,265.1z"/>
	<path class="st3" d="M257.8,279c9.5,32.6,23.9,110.4,2,164.5c-2.3,5.6-2,11-6.8,16c29.7,31.4,101.2,49.5,101.2,49.5l0,0l0,0
		c0,0,36.3-63.3,34.8-106.5c-7.2-0.1-13.8-5.2-19.6-7.7C316.2,372.1,274.4,309.1,257.8,279z"/>
	<path class="st2" d="M257.8,279c-3.8-6.8-6.3-11.8-7.3-13.9c-2.1,6.4-36.2,112.3-7.6,179.6c2.2,5.2,5.7,10.1,10.1,14.8
		c4.8-5,8.5-10.4,10.8-16C285.6,389.4,267.2,311.5,257.8,279z"/>
	<path class="st4" d="M250.6,264.8l0.1,0.1c0,0,0,0,0,0L250.6,264.8c0,0,0.1,0,0.2,0.1c0.1,0,0.1-0.1,0.2-0.1c0-0.2,0-0.5,0-0.9
		c-0.2,0.1-0.4,0.2-0.6,0.3l0.1,0l-0.1,0c-0.1,0-0.2,0.1-0.2,0.1c0.1,0.2,0.2,0.4,0.4,0.8c0,0,0,0,0.1,0
		C250.5,264.9,250.6,264.8,250.6,264.8z"/>
	<polygon class="st2" points="250.8,265.2 250.6,264.9 250.6,264.9 	"/>
	<polygon class="st4" points="250.8,265.2 250.6,264.9 250.6,264.9 	"/>
	<path class="st2" d="M251.2,265.1c0.6,0.3,1.5,0.7,2.6,1.3c-0.2-0.7-0.4-1.2-0.5-1.6c-0.1,0-0.1-0.1-0.2-0.1
		C252.2,264.9,251.6,265,251.2,265.1z"/>
	<path class="st2" d="M250.7,264.9c0.1,0,0.1,0.1,0.2,0.1c0-0.1,0-0.1,0-0.2C250.8,264.8,250.8,264.8,250.7,264.9z"/>
	<path class="st4" d="M250.7,264.9c0.1,0,0.1,0.1,0.2,0.1c0-0.1,0-0.1,0-0.2C250.8,264.8,250.8,264.8,250.7,264.9z"/>
	<path class="st2" d="M250.4,265C250.4,265,250.4,265.1,250.4,265C250.5,265,250.5,265,250.4,265C250.5,265,250.4,265,250.4,265z"/>
	<path class="st4" d="M250.4,265C250.4,265,250.4,265.1,250.4,265C250.5,265,250.5,265,250.4,265C250.5,265,250.4,265,250.4,265z"/>
	<polygon class="st2" points="251,265 251,265 251.2,264.8 	"/>
	<polygon class="st4" points="251,265 251,265 251.2,264.8 	"/>
	<path class="st3" d="M250.5,265c0,0,0.1,0,0.1-0.1l-0.1-0.1C250.6,264.8,250.5,264.9,250.5,265z"/>
	<path class="st4" d="M250.5,265c0,0,0.1,0,0.1-0.1l-0.1-0.1C250.6,264.8,250.5,264.9,250.5,265z"/>
	<path class="st3" d="M250.6,264.9C250.7,264.9,250.7,264.9,250.6,264.9c0-0.1-0.1-0.1-0.1-0.1L250.6,264.9z"/>
	<path class="st4" d="M250.6,264.9C250.7,264.9,250.7,264.9,250.6,264.9c0-0.1-0.1-0.1-0.1-0.1L250.6,264.9z"/>
	<path class="st3" d="M253.9,266.4c0.9,2.6,2.2,6.9,3.9,12.5c16.7,30.2,58.4,97.2,111.6,119.7c5.8,2.4,12.4,3.6,19.6,3.7
		c-0.2-6.6-1.4-12.8-3.6-18.2C358.9,322.1,271.9,275.5,253.9,266.4z"/>
	<path class="st2" d="M250.9,265.2l0.1-0.2c0,0,0,0,0,0L250.9,265.2c0,0,0-0.1,0-0.2c-0.1,0-0.1-0.1-0.2-0.1c0,0-0.1,0-0.1,0
		l0.1,0.3l-0.1-0.3c0,0-0.1,0-0.1,0.1c0,0,0,0.1,0,0.1c1,2.1,3.5,7,7.3,13.9c-1.7-5.7-3-10-3.9-12.5c-1.2-0.6-2.1-1-2.6-1.3
		C251,265.1,250.9,265.2,250.9,265.2z"/>
	<path class="st3" d="M250.9,265.2l0.1-0.2c0,0,0,0,0,0L250.9,265.2c0,0,0-0.1,0-0.2c-0.1,0-0.1-0.1-0.2-0.1c0,0-0.1,0-0.1,0
		l0.1,0.3l-0.1-0.3c0,0-0.1,0-0.1,0.1c0,0,0,0.1,0,0.1c1,2.1,3.5,7,7.3,13.9c-1.7-5.7-3-10-3.9-12.5c-1.2-0.6-2.1-1-2.6-1.3
		C251,265.1,250.9,265.2,250.9,265.2z"/>
	<path class="st5" d="M503.5,185.8L503.5,185.8L503.5,185.8c0,0-40.8-29.5-79.3-41.2c-1.1,15.8-9.6,30.3-17.2,40
		c-25.4,32.6-66.3,53.6-102.7,66c37.7-6.7,87.7-8.4,125.5,7.6c8,3.4,15.4,7.8,22,16C482,244.4,503.5,185.8,503.5,185.8z"/>
	<path class="st4" d="M429.8,256.3c-37.8-16-87.8-12.3-125.5-5.6c-22.1,7.5-40.6,11.8-48.8,13.6c-0.5,0.6-0.8,0.9-0.8,0.9l0-0.4
		l0,0.4c0,0-0.2-0.2-0.6-0.7c-0.3,0.1-0.6,0.1-0.8,0.2c0,0,0,0.1,0,0.1c18.6,8,110.2,44.7,174.7,25c8.3-2.5,16.3-8.2,23.8-15.5
		C445.2,266.1,437.8,259.7,429.8,256.3z"/>
	<path class="st1" d="M254.7,265.2l0-0.4L254.7,265.2c0,0,0.3-0.3,0.8-0.9c-0.5,0.1-1,0.2-1.4,0.3
		C254.5,265,254.7,265.2,254.7,265.2z"/>
	<path class="st4" d="M254.7,265.2l0-0.4L254.7,265.2c0,0,0.3-0.3,0.8-0.9c-0.5,0.1-1,0.2-1.4,0.3
		C254.5,265,254.7,265.2,254.7,265.2z"/>
	<path class="st2" d="M253.3,264.8c0,0,0-0.1,0-0.1c0,0-0.1,0-0.1,0C253.2,264.7,253.3,264.8,253.3,264.8z"/>
	<path class="st4" d="M253.3,264.8c0,0,0-0.1,0-0.1c0,0-0.1,0-0.1,0C253.2,264.7,253.3,264.8,253.3,264.8z"/>
	<path class="st5" d="M253.3,264.8c0,0,0-0.1,0-0.1c0,0-0.1,0-0.1,0C253.2,264.7,253.3,264.8,253.3,264.8z"/>
	<path class="st6" d="M302.6,196.5c22.5-23.1,51.4-42.5,81.2-51.7c11.8-3.6,25.4-4.7,40.4-0.2c2.8-40.1-10-88.4-10-88.4l0,0l0,0
		c0,0-54.6-0.8-93.3,13.4c6.7,11.2,7.1,23.5,7.1,34C328,135.3,318.4,168,302.6,196.5z"/>
	<path class="st1" d="M290.1,89.4c-23.9,30.6-33.6,76.3-37.3,113.5c1.9,26.1,1.1,47.4,0.6,55.1c7.1-10.8,25-36.6,49.2-61.5
		c15.8-28.5,29.5-62.2,29.5-93.9c0-10.5-4.4-21.8-11.1-33C308,74.3,296.8,80.8,290.1,89.4z"/>
	<path class="st4" d="M250.9,264.8c0.4-0.2,0.8-0.4,1-0.5c-0.4-0.2-0.7-0.3-1-0.4c0,0-0.1,0-0.1,0
		C250.9,264.2,250.9,264.5,250.9,264.8z"/>
	<path class="st2" d="M250.9,264.9c0,0,0.1,0,0.1,0.1l0.1-0.2L251,265c0.1,0,0.1,0.1,0.2,0.1c0.3-0.1,1-0.2,1.9-0.4
		c-0.4-0.2-0.8-0.4-1.2-0.5c-0.3,0.1-0.6,0.3-1,0.5C250.9,264.8,250.9,264.9,250.9,264.9z"/>
	<path class="st4" d="M250.9,264.9c0,0,0.1,0,0.1,0.1l0.1-0.2L251,265c0.1,0,0.1,0.1,0.2,0.1c0.3-0.1,1-0.2,1.9-0.4
		c-0.4-0.2-0.8-0.4-1.2-0.5c-0.3,0.1-0.6,0.3-1,0.5C250.9,264.8,250.9,264.9,250.9,264.9z"/>
	<path class="st4" d="M494,367.6c0,0-15.3-60.5-42.2-93.3c-7.5,7.4-18.5,10-26.8,12.5c-64.5,19.7-153.1-14-171.7-22
		c-0.1,0-0.1-0.1-0.2-0.1c-0.4-0.2-0.8-0.4-1.2-0.5c-0.4-0.2-0.7-0.3-1-0.4c0,0-0.1,0-0.1,0c0,0.4,0,0.7,0,0.9c0,0.1,0,0.1,0,0.2
		c0,0,0.1,0,0.1,0.1l0.1-0.2L251,265c0.1,0,0.1,0.1,0.2,0.1c0.6,0.3,1.5,0.7,2.6,1.3c18,9.1,100.1,55.7,126.4,117.8
		c2.3,5.4,8.4,11.5,8.6,18.2C432.1,403.1,494,367.6,494,367.6L494,367.6L494,367.6z"/>
	<path class="st2" d="M250.9,265.2c0,0,0.1,0,0.3-0.1c-0.1,0-0.1-0.1-0.2-0.1L250.9,265.2z"/>
	<path class="st3" d="M250.9,265.2c0,0,0.1,0,0.3-0.1c-0.1,0-0.1-0.1-0.2-0.1L250.9,265.2z"/>
	<path class="st4" d="M250.9,265.2c0,0,0.1,0,0.3-0.1c-0.1,0-0.1-0.1-0.2-0.1L250.9,265.2z"/>
	<path class="st6" d="M250.9,265.2c0,0,0.1,0,0.3-0.1c-0.1,0-0.1-0.1-0.2-0.1L250.9,265.2z"/>
	<path class="st2" d="M250.9,265.2l0.1-0.2c0,0-0.1,0-0.1-0.1C250.9,265.1,250.9,265.2,250.9,265.2z"/>
	<path class="st3" d="M250.9,265.2l0.1-0.2c0,0-0.1,0-0.1-0.1C250.9,265.1,250.9,265.2,250.9,265.2z"/>
	<path class="st4" d="M250.9,265.2l0.1-0.2c0,0-0.1,0-0.1-0.1C250.9,265.1,250.9,265.2,250.9,265.2z"/>
	<path class="st6" d="M250.9,265.2l0.1-0.2c0,0-0.1,0-0.1-0.1C250.9,265.1,250.9,265.2,250.9,265.2z"/>
	<path class="st5" d="M252.3,263.2c0.2-0.1,0.3-0.1,0.5-0.2c0,0,0,0,0,0C252.6,263,252.5,263.1,252.3,263.2z"/>
	<path class="st6" d="M252.3,263.2c0.2-0.1,0.3-0.1,0.5-0.2c0,0,0,0,0,0C252.6,263,252.5,263.1,252.3,263.2z"/>
	<path class="st5" d="M382.8,141.8c-29.9,9.1-57.8,31.5-80.2,54.7c-17.3,31.2-37.2,56-44.8,65c9.3-2.7,26.1-7.2,46.5-10.9
		c36.3-12.4,82.2-33.4,107.7-66c7.6-9.8,11.1-24.3,12.2-40C409.2,140.1,394.6,138.2,382.8,141.8z"/>
	<path class="st1" d="M252.9,260.9l0.3,0.3c0,0-0.2,0-0.5-0.1c0.6,1,0.9,1.5,0.9,1.5l-0.4-0.1l0.4,0.1c0,0-0.3,0.1-0.8,0.4
		c0,0,0,0,0,0c1.3-0.4,3-0.9,5-1.5c7.6-9,27.5-33.9,44.8-65c-24.2,24.9-42.1,50.7-49.2,61.5c-0.1,2.1-0.2,3.2-0.2,3.2L252.9,260.9z"
		/>
	<path class="st5" d="M252.9,260.9l0.3,0.3c0,0-0.2,0-0.5-0.1c0.6,1,0.9,1.5,0.9,1.5l-0.4-0.1l0.4,0.1c0,0-0.3,0.1-0.8,0.4
		c0,0,0,0,0,0c1.3-0.4,3-0.9,5-1.5c7.6-9,27.5-33.9,44.8-65c-24.2,24.9-42.1,50.7-49.2,61.5c-0.1,2.1-0.2,3.2-0.2,3.2L252.9,260.9z"
		/>
	<path class="st4" d="M252.3,263.2c-0.4,0.2-0.8,0.4-1.3,0.6c0.3,0.1,0.6,0.3,1,0.4c0.6-0.3,1-0.5,1-0.5l-0.1,0.4l0.1-0.4
		c0,0,0.1,0.3,0.3,1c0.3-0.1,0.5-0.1,0.8-0.2c-0.3-0.4-0.7-0.9-1.3-1.5C252.6,263.1,252.5,263.1,252.3,263.2z"/>
	<path class="st5" d="M252.3,263.2c-0.4,0.2-0.8,0.4-1.3,0.6c0.3,0.1,0.6,0.3,1,0.4c0.6-0.3,1-0.5,1-0.5l-0.1,0.4l0.1-0.4
		c0,0,0.1,0.3,0.3,1c0.3-0.1,0.5-0.1,0.8-0.2c-0.3-0.4-0.7-0.9-1.3-1.5C252.6,263.1,252.5,263.1,252.3,263.2z"/>
	<path class="st4" d="M255.5,264.2c8.2-1.7,26.7-6.1,48.8-13.6c-20.4,3.6-37.2,8.2-46.5,10.9C256.8,262.7,256,263.6,255.5,264.2z"/>
	<path class="st5" d="M255.5,264.2c8.2-1.7,26.7-6.1,48.8-13.6c-20.4,3.6-37.2,8.2-46.5,10.9C256.8,262.7,256,263.6,255.5,264.2z"/>
	<path class="st1" d="M252.8,263c0.5,0.6,1,1.1,1.3,1.5c0.4-0.1,0.9-0.2,1.4-0.3c0.5-0.6,1.3-1.5,2.3-2.7
		C255.8,262.1,254.1,262.6,252.8,263z"/>
	<path class="st4" d="M252.8,263c0.5,0.6,1,1.1,1.3,1.5c0.4-0.1,0.9-0.2,1.4-0.3c0.5-0.6,1.3-1.5,2.3-2.7
		C255.8,262.1,254.1,262.6,252.8,263z"/>
	<path class="st5" d="M252.8,263c0.5,0.6,1,1.1,1.3,1.5c0.4-0.1,0.9-0.2,1.4-0.3c0.5-0.6,1.3-1.5,2.3-2.7
		C255.8,262.1,254.1,262.6,252.8,263z"/>
	<path class="st2" d="M252.8,264.1l0.1-0.4c0,0-0.4,0.2-1,0.5c0.3,0.2,0.7,0.3,1.2,0.5c0,0,0.1,0,0.1,0c-0.2-0.6-0.3-1-0.3-1
		L252.8,264.1z"/>
	<path class="st4" d="M252.8,264.1l0.1-0.4c0,0-0.4,0.2-1,0.5c0.3,0.2,0.7,0.3,1.2,0.5c0,0,0.1,0,0.1,0c-0.2-0.6-0.3-1-0.3-1
		L252.8,264.1z"/>
	<path class="st5" d="M252.8,264.1l0.1-0.4c0,0-0.4,0.2-1,0.5c0.3,0.2,0.7,0.3,1.2,0.5c0,0,0.1,0,0.1,0c-0.2-0.6-0.3-1-0.3-1
		L252.8,264.1z"/>
	<path class="st7" d="M124.3,385.5c23.8-58.8,97.5-104.9,121.5-118c0.4-0.8,0.6-1.4,0.9-1.9c-24.7,10.2-110.1,38.2-171.2,19.5
		c-8.1-2.5-15.9-3.9-23.2-11c-30,31.1-45.4,102.4-45.4,102.4l0,0l0,0c0,0,67.1,35.4,110.2,30.8C116.8,399.3,121.7,391.8,124.3,385.5
		z"/>
	<path class="st2" d="M245.8,267.5c-24,13.1-101.7,59.1-125.5,118c-2.6,6.4-3.5,13.8-3.3,21.8c5.7-0.6,10.9-1.9,15.5-4
		C194,374.5,237.6,285.2,245.8,267.5z"/>
	<path class="st8" d="M120.7,146.1c36.9,11.3,70.9,37.9,95.2,66.1c-19.3-31.2-34.7-71.8-34.7-109.5c0-11.6,1.4-24.2,9.3-36.5
		c-38.6-16.5-97.1-16.7-97.1-16.7l0,0l0,0c0,0-14.9,52.5-11.2,93.6C96.3,139.1,109.8,142.7,120.7,146.1z"/>
	<path class="st1" d="M216,212.2c17,19.7,29.3,37.7,34.7,45.8c-0.3-10.3-0.4-30.9,2.1-55.1C250,165,241.3,117,217.1,84.8
		c-5.9-7.9-15.4-14-26.5-18.7c-7.9,12.3-13.3,24.9-13.3,36.5C177.3,140.3,196.6,180.9,216,212.2z"/>
	<path class="st1" d="M253.4,258c0.4-7.8,1.3-29-0.6-55.1c-2.4,24.2-2.4,44.8-2.1,55.1c0.5,0.8,1,1.5,1.4,2.1
		C252.4,259.5,252.9,258.8,253.4,258z"/>
	<path class="st6" d="M253.4,258c0.4-7.8,1.3-29-0.6-55.1c-2.4,24.2-2.4,44.8-2.1,55.1c0.5,0.8,1,1.5,1.4,2.1
		C252.4,259.5,252.9,258.8,253.4,258z"/>
	<path class="st1" d="M252.6,261.1c0.3,0.1,0.5,0.1,0.5,0.1l-0.3-0.3l0.3,0.3c0,0,0.1-1.1,0.2-3.2c-0.5,0.8-1,1.5-1.4,2.1
		C252.2,260.5,252.5,260.8,252.6,261.1z"/>
	<path class="st5" d="M252.6,261.1c0.3,0.1,0.5,0.1,0.5,0.1l-0.3-0.3l0.3,0.3c0,0,0.1-1.1,0.2-3.2c-0.5,0.8-1,1.5-1.4,2.1
		C252.2,260.5,252.5,260.8,252.6,261.1z"/>
	<path class="st6" d="M252.6,261.1c0.3,0.1,0.5,0.1,0.5,0.1l-0.3-0.3l0.3,0.3c0,0,0.1-1.1,0.2-3.2c-0.5,0.8-1,1.5-1.4,2.1
		C252.2,260.5,252.5,260.8,252.6,261.1z"/>
	<path class="st4" d="M250.9,263.7c0,0-0.1,0-0.1,0c-0.5,0.2-0.8,0.3-0.8,0.3l0.4,0.1C250.5,264,250.7,263.9,250.9,263.7
		C250.9,263.8,250.9,263.8,250.9,263.7z"/>
	<path class="st9" d="M250.9,263.7c0,0-0.1,0-0.1,0c-0.5,0.2-0.8,0.3-0.8,0.3l0.4,0.1C250.5,264,250.7,263.9,250.9,263.7
		C250.9,263.8,250.9,263.8,250.9,263.7z"/>
	<path class="st4" d="M249.9,264c0,0,0,0.1,0.1,0.2c0.1,0,0.2-0.1,0.2-0.1L249.9,264z"/>
	<path class="st9" d="M249.9,264c0,0,0,0.1,0.1,0.2c0.1,0,0.2-0.1,0.2-0.1L249.9,264z"/>
	<path class="st5" d="M250.8,262c-0.5,0.9-0.8,1.3-0.8,1.3l0.4-0.2l-0.4,0.2c0,0,0.3,0.1,0.8,0.4c0,0,0.1,0,0.1,0
		C250.8,263.2,250.8,262.6,250.8,262z"/>
	<path class="st4" d="M250.9,263.6C250.8,263.7,250.8,263.7,250.9,263.6C250.8,263.7,250.8,263.7,250.9,263.6
		C250.9,263.7,250.9,263.7,250.9,263.6z"/>
	<path class="st5" d="M250.9,263.6C250.8,263.7,250.8,263.7,250.9,263.6C250.8,263.7,250.8,263.7,250.9,263.6
		C250.9,263.7,250.9,263.7,250.9,263.6z"/>
	<path class="st9" d="M250.9,263.6C250.8,263.7,250.8,263.7,250.9,263.6C250.8,263.7,250.8,263.7,250.9,263.6
		C250.9,263.7,250.9,263.7,250.9,263.6z"/>
	<path class="st6" d="M250.9,260.7c0,0-0.1,0-0.1,0c0,0.5,0,0.9,0,1.3c0.1-0.2,0.3-0.5,0.5-0.8C251.1,261.1,251,260.9,250.9,260.7z"
		/>
	<path class="st1" d="M250.9,260.7c0.1,0.2,0.3,0.3,0.4,0.5c0.1-0.1,0.1-0.2,0.2-0.4C251.3,260.8,251.1,260.8,250.9,260.7z"/>
	<path class="st6" d="M250.9,260.7c0.1,0.2,0.3,0.3,0.4,0.5c0.1-0.1,0.1-0.2,0.2-0.4C251.3,260.8,251.1,260.8,250.9,260.7z"/>
	<path class="st4" d="M250.9,263.8C250.9,263.8,250.9,263.8,250.9,263.8C250.9,263.8,250.9,263.7,250.9,263.8
		C250.9,263.8,250.9,263.8,250.9,263.8z"/>
	<path class="st6" d="M250.9,263.8C250.9,263.8,250.9,263.8,250.9,263.8C250.9,263.8,250.9,263.7,250.9,263.8
		C250.9,263.8,250.9,263.8,250.9,263.8z"/>
	<path class="st9" d="M250.9,263.8C250.9,263.8,250.9,263.8,250.9,263.8C250.9,263.8,250.9,263.7,250.9,263.8
		C250.9,263.8,250.9,263.8,250.9,263.8z"/>
	<path class="st5" d="M252.3,263.2c0.2-0.1,0.3-0.1,0.5-0.2c-0.4-0.5-0.9-1.1-1.5-1.8c-0.2,0.3-0.4,0.6-0.5,0.8
		c0,0.6,0.1,1.2,0.1,1.6C251.2,263.5,251.7,263.4,252.3,263.2z"/>
	<path class="st6" d="M252.3,263.2c0.2-0.1,0.3-0.1,0.5-0.2c-0.4-0.5-0.9-1.1-1.5-1.8c-0.2,0.3-0.4,0.6-0.5,0.8
		c0,0.6,0.1,1.2,0.1,1.6C251.2,263.5,251.7,263.4,252.3,263.2z"/>
	<path class="st1" d="M253.2,262.5l0.4,0.1c0,0-0.3-0.5-0.9-1.5c-0.3-0.1-0.6-0.1-1.1-0.2c-0.1,0.1-0.2,0.2-0.2,0.4
		c0.6,0.7,1.1,1.3,1.5,1.8c0.5-0.2,0.8-0.4,0.8-0.4L253.2,262.5z"/>
	<path class="st5" d="M253.2,262.5l0.4,0.1c0,0-0.3-0.5-0.9-1.5c-0.3-0.1-0.6-0.1-1.1-0.2c-0.1,0.1-0.2,0.2-0.2,0.4
		c0.6,0.7,1.1,1.3,1.5,1.8c0.5-0.2,0.8-0.4,0.8-0.4L253.2,262.5z"/>
	<path class="st6" d="M253.2,262.5l0.4,0.1c0,0-0.3-0.5-0.9-1.5c-0.3-0.1-0.6-0.1-1.1-0.2c-0.1,0.1-0.2,0.2-0.2,0.4
		c0.6,0.7,1.1,1.3,1.5,1.8c0.5-0.2,0.8-0.4,0.8-0.4L253.2,262.5z"/>
	<path class="st9" d="M253.6,262.6c0,0-0.3-0.5-0.9-1.5c-0.3-0.1-0.6-0.1-1.1-0.2c-0.2,0-0.4-0.1-0.7-0.1c0,0-0.1,0-0.1,0
		C234.1,257,139,229,97.5,173.9c-6.6-8.8-13.9-17.2-15.2-30.9c-39.4,11-82.4,42-82.4,42l0,0l0,0c0,0,21.8,59.3,52.3,89
		c4.6-4.8,11.6-6.6,16.9-9.1c68.3-31.9,178-0.6,178-0.6l-0.4,0.2l0.4-0.2c0,0-0.2,0.4-0.5,1.2c1.3-0.5,2.4-1,3.3-1.4
		c-0.1-0.1-0.1-0.2-0.1-0.2l0.4,0.1c0,0,0,0,0,0l-0.4-0.1c0,0,0.3-0.1,0.8-0.3c0,0,0.1,0,0.1,0c0.4-0.1,0.9-0.3,1.4-0.5
		c0.2-0.1,0.3-0.1,0.5-0.2C253.3,262.7,253.6,262.6,253.6,262.6l-0.4-0.1L253.6,262.6z"/>
	<path class="st4" d="M250.9,263.7c0,0,0.1,0,0.1,0c0.5-0.2,1-0.4,1.3-0.6C251.7,263.4,251.2,263.5,250.9,263.7
		C250.9,263.7,250.9,263.7,250.9,263.7z"/>
	<path class="st5" d="M250.9,263.7c0,0,0.1,0,0.1,0c0.5-0.2,1-0.4,1.3-0.6C251.7,263.4,251.2,263.5,250.9,263.7
		C250.9,263.7,250.9,263.7,250.9,263.7z"/>
	<path class="st6" d="M250.9,263.7c0,0,0.1,0,0.1,0c0.5-0.2,1-0.4,1.3-0.6C251.7,263.4,251.2,263.5,250.9,263.7
		C250.9,263.7,250.9,263.7,250.9,263.7z"/>
	<path class="st9" d="M250.9,263.7c0,0,0.1,0,0.1,0c0.5-0.2,1-0.4,1.3-0.6C251.7,263.4,251.2,263.5,250.9,263.7
		C250.9,263.7,250.9,263.7,250.9,263.7z"/>
	<path class="st7" d="M246.7,265.6c0.3-0.8,0.5-1.2,0.5-1.2l-0.4,0.2l0.4-0.2c0,0-111.7-33.3-180-1.4c-5.3,2.5-10.3,6.3-14.9,11.1
		c7.3,7.1,15.1,12.5,23.2,15C136.6,307.7,222,275.8,246.7,265.6z"/>
	<path class="st8" d="M250.7,260.7c0,0,0-0.1,0-0.1c-6.6-8-20.7-25.7-34.7-48.4c-24.3-28.1-58.3-59.8-95.2-71.1
		c-11-3.4-24.4-2-38.4,1.9c1.2,13.7,4.5,26.1,11.2,34.9C135,233,234.1,257,250.7,260.7z"/>
	<path class="st1" d="M216,212.2c14.1,22.7,28.1,40.4,34.7,48.4c0-0.8-0.1-1.6-0.1-2.5C245.3,249.8,233,231.9,216,212.2z"/>
	<path class="st8" d="M216,212.2c14.1,22.7,28.1,40.4,34.7,48.4c0-0.8-0.1-1.6-0.1-2.5C245.3,249.8,233,231.9,216,212.2z"/>
	<path class="st6" d="M250.7,260.5c0,0,0,0.1,0,0.1c0,0,0.1,0,0.1,0C250.8,260.7,250.8,260.6,250.7,260.5z"/>
	<path class="st8" d="M250.7,260.5c0,0,0,0.1,0,0.1c0,0,0.1,0,0.1,0C250.8,260.7,250.8,260.6,250.7,260.5z"/>
	<path class="st9" d="M250.7,260.5c0,0,0,0.1,0,0.1c0,0,0.1,0,0.1,0C250.8,260.7,250.8,260.6,250.7,260.5z"/>
	<path class="st1" d="M251.5,260.9c0.2-0.2,0.3-0.5,0.5-0.8c-0.4-0.6-0.8-1.3-1.4-2.1c0,0.9,0.1,1.8,0.1,2.5c0,0.1,0.1,0.1,0.1,0.2
		C251.1,260.8,251.3,260.8,251.5,260.9z"/>
	<path class="st6" d="M251.5,260.9c0.2-0.2,0.3-0.5,0.5-0.8c-0.4-0.6-0.8-1.3-1.4-2.1c0,0.9,0.1,1.8,0.1,2.5c0,0.1,0.1,0.1,0.1,0.2
		C251.1,260.8,251.3,260.8,251.5,260.9z"/>
	<path class="st8" d="M251.5,260.9c0.2-0.2,0.3-0.5,0.5-0.8c-0.4-0.6-0.8-1.3-1.4-2.1c0,0.9,0.1,1.8,0.1,2.5c0,0.1,0.1,0.1,0.1,0.2
		C251.1,260.8,251.3,260.8,251.5,260.9z"/>
	<path class="st1" d="M252,260.1c-0.2,0.3-0.3,0.5-0.5,0.8c0.5,0.1,0.9,0.2,1.1,0.2C252.5,260.8,252.2,260.5,252,260.1z"/>
	<path class="st5" d="M252,260.1c-0.2,0.3-0.3,0.5-0.5,0.8c0.5,0.1,0.9,0.2,1.1,0.2C252.5,260.8,252.2,260.5,252,260.1z"/>
	<path class="st6" d="M252,260.1c-0.2,0.3-0.3,0.5-0.5,0.8c0.5,0.1,0.9,0.2,1.1,0.2C252.5,260.8,252.2,260.5,252,260.1z"/>
	<path class="st8" d="M252,260.1c-0.2,0.3-0.3,0.5-0.5,0.8c0.5,0.1,0.9,0.2,1.1,0.2C252.5,260.8,252.2,260.5,252,260.1z"/>
	<path class="st10" d="M253.9,266.4c0.9,2.6,2.2,6.9,3.9,12.5c16.7,30.2,58.4,97.2,111.6,119.7c5.8,2.4,12.4,3.6,19.6,3.7
		c-0.2-6.6-1.4-12.8-3.6-18.2C358.9,322.1,271.9,275.5,253.9,266.4z"/>
	<path class="st11" d="M257.8,279c-1.7-5.7-3-10-3.9-12.5c-1.2-0.6-2.1-1-2.6-1.3c-0.2,0-0.3,0.1-0.3,0.1l0.1-0.2c0,0,0,0,0,0
		l-0.1,0.2c0,0,0-0.1,0-0.2c-0.1,0-0.1-0.1-0.2-0.1c0,0-0.1,0-0.1,0l0.1,0.3l-0.1-0.3c0,0-0.1,0-0.1,0.1c0,0,0,0.1,0,0.1
		c-2.1,6.4-36.2,112.3-7.6,179.6c2.2,5.2,5.7,10.1,10.1,14.8c4.8-5,8.5-10.4,10.8-16C285.6,389.4,267.2,311.5,257.8,279z"/>
	<path class="st12" d="M382.8,141.8c-29.9,9.1-57.8,31.5-80.2,54.7c-17.3,31.2-37.2,56-44.8,65c9.3-2.7,26.1-7.2,46.5-10.9
		c36.3-12.4,82.2-33.4,107.7-66c7.6-9.8,11.1-24.3,12.2-40C409.2,140.1,394.6,138.2,382.8,141.8z"/>
	<path class="st13" d="M320.9,69.6c-12.9,4.7-24.1,11.1-30.8,19.8c-23.9,30.6-33.6,76.3-37.3,113.5c1.9,26.1,1.1,47.4,0.6,55.1
		c-0.1,2.1-0.2,3.2-0.2,3.2l-0.3-0.3l0.3,0.3c0,0-0.2,0-0.5-0.1c0.6,1,0.9,1.5,0.9,1.5l-0.4-0.1l0.4,0.1c0,0-0.3,0.1-0.8,0.4
		c0,0,0,0,0,0c1.3-0.4,3-0.9,5-1.5c7.6-9,27.5-33.9,44.8-65c15.8-28.5,29.5-62.2,29.5-93.9C332,92.1,327.6,80.8,320.9,69.6z"/>
	<path class="st14" d="M429.8,256.3c-37.8-16-87.8-12.3-125.5-5.6c-20.4,3.6-37.2,8.2-46.5,10.9c-2,0.6-3.7,1.1-5,1.5
		c-0.2,0.1-0.4,0.1-0.5,0.2c-0.4,0.2-0.8,0.4-1.3,0.6c0.3,0.1,0.6,0.3,1,0.4c0.3,0.2,0.7,0.3,1.2,0.5c0,0,0.1,0,0.1,0
		c0,0,0,0.1,0,0.1c18.6,8,110.2,44.7,174.7,25c8.3-2.5,16.3-8.2,23.8-15.5C445.2,266.1,437.8,259.7,429.8,256.3z"/>
	<path class="st15" d="M245.8,267.5c-24,13.1-101.7,59.1-125.5,118c-2.6,6.4-3.5,13.8-3.3,21.8c5.7-0.6,10.9-1.9,15.5-4
		C194,374.5,237.6,285.2,245.8,267.5z"/>
	<path class="st16" d="M252.7,202.9C250,165,241.3,117,217.1,84.8c-5.9-7.9-15.4-14-26.5-18.7c-7.9,12.3-13.3,24.9-13.3,36.5
		c0,37.7,19.3,78.3,38.7,109.5c17,19.7,29.3,37.7,34.7,45.8c0.5,0.8,1,1.5,1.4,2.1c0.2,0.4,0.5,0.7,0.6,1c0.3,0.1,0.5,0.1,0.5,0.1
		l-0.3-0.3l0.3,0.3c0,0,0.1-1.1,0.2-3.2C253.8,250.2,254.7,229,252.7,202.9z"/>
	<path class="st17" d="M250.2,265.7c0.3-0.8,0.4-1.9,0.4-1.9l-3.8,0.8l0.4-0.2c0,0-111.7-33.3-180-1.4c-5.3,2.5-10.3,6.3-14.9,11.1
		c7.3,7.1,15.1,12.5,23.2,15C136.6,307.7,225.6,275.9,250.2,265.7z"/>
	<path class="st18" d="M252,260.1c-0.4-0.6-0.8-1.3-1.4-2.1c-5.3-8.2-17.6-26.1-34.7-45.8c-24.3-28.1-58.3-59.8-95.2-71.1
		c-11-3.4-24.4-2-38.4,1.9c1.2,13.7,4.5,26.1,11.2,34.9C135,233,234.1,257,250.7,260.7c0,0,0-0.1,0-0.1c0,0.1,0.1,0.1,0.1,0.2
		c0.2,0.1,0.5,0.1,0.7,0.1c0.5,0.1,0.9,0.2,1.1,0.2C252.5,260.8,252.2,260.5,252,260.1z"/>
</g>
<g id="text">
	<g>
		<path class="st19" d="M347.4,238.5c-1.5-10.1-5.1-18.7-13.7-24c-2.3-1.4-5-2.1-7.7-2.2c-0.3,0-0.6,0-0.9,0c-1,0-1.8,0-2.8,0.1
			c-1.1,0.1-2.1,0.3-3.1,0.7c-7,2.8-12.7,7.3-17.7,12.9c-7.3,8.1-12.9,17.3-17.7,27c-0.8,1.6-1.3,3.4-3.2,5
			c0.5-13.1,1.8-25.5,1.6-37.9c-2.7-6.4-5.2-7.9-11.9-6.7c-2.9,0.5-5.9,1.2-8.8,1.9c-5.9,1.5-11.9,3.2-17.8,4.8
			c-5.1-2.8-9.7-6.3-15.4-7.3l-11.9-0.1c-0.7,0.1-1.8,0.3-2.5,0.4c-6.8,2.2-13.2,5.1-18.6,10c-7.6,6.9-12.1,15.6-15.8,24.9
			c-1.4,5.6-2.7,11.3-3.1,17.1c-0.6,9.2,0.5,14.6,5.7,28.4c-4.4,2.6-9.1,3.5-14.2,3.1c-2.2-0.1-3.5-1.6-4.3-3.6
			c-1-2.4-1.2-4.8-1.2-7.3c-0.2-11.3,0.7-22.5,2-33.8c-0.4-3.3-0.1-6.7,0.4-9.9c0.7-4.9,0.3-9.6-0.8-14.3
			c-2.8-12-13.6-17.7-25.2-13.6c-6.4,2.3-11.1,6.6-15.2,11.7c-5.9,7.1-9.9,15.3-14,23.4c-1.7,4.5-3.4,9.1-5,13.6
			c-1.2-4.2-0.2-8,0-11.9c-0.6-3.4,0.6-6.6,0.9-9.9c-0.1-9,1.1-17.9,1.7-26.8c1.4-20.4,3.7-40.7,5.8-61c0.6-6,2.1-12.1,1.4-18
			c-7.7-4.8-15.7-3-18.9,3.8c-0.1,4.8-0.1,9.7-0.3,14.5c-1.3,23.9-2.6,47.8-3.9,71.7c-0.2,11-1.8,21.8-1.8,32.8
			c-0.7,14.8-1.5,29.6-2.2,44.4c-0.1,1.7-0.7,3.7,1.1,5.5c4.7-0.3,9.6-0.6,14.6-1.9c0.7-9.1,1.9-17.8,4.3-26.3
			c3.5-12.7,7.7-25.1,15.7-35.9c2.7-5,6.4-9.3,11.1-12.4c6.3-4.1,12.1-2,14.2,5.2c1.2,4.2,1.3,8.4,0.2,12.7c-0.3,5-0.7,9.9-1,14.9
			c-0.6,10.6-1.7,21.1-0.5,31.7c0.5,4.8,1.3,9.6,6.1,12.6c1.6,0.5,3.4,0.7,5.2,0.7c4.6-0.1,8.7-2,13-2.9c4.6-2.5,9.5-4.5,13.6-7.6
			c1.2,0.1,1.8,0.7,2.3,1.3c9.9,10,21.7,11.9,34.8,8.2c0.6-0.2,1.3-0.2,2-0.3c9.1-4.2,16.5-10.3,22-18.8c2.9-4.5,4.8-9.5,7.1-14.2
			c1.2-5.3,2.6-10.6,3-16.1c0.9-11.4-1-22.2-7.7-32.6c5.4-1.3,10.2-2.9,14.9-1c2,1.9,2.1,3.8,2.2,5.8c1,14-0.4,27.9-0.7,41.9
			c-0.3,14-1.6,27.9-1.7,41.9c-1.2,13.6-1.4,27.5-2.9,41.1c-0.1,3.5,0.2,7-0.9,10.4c0.5,1-0.4,2.2,0.5,3.2c1.7,0.7,3.5,0.2,5.3,0.2
			c3.2-1.6,6.9-0.2,10-1.4c1.4-1.8,0.9-3.7,1-5.5c0.3-12.7,0.5-52.7,2.2-60c0.9-0.6,1.5-0.1,2.2,0.4c10,7.1,20.7,8.2,32.1,4.2
			c0.8-0.3,1.6-0.5,2.4-0.7c10.3-5,18.3-12.5,23.9-22.5c1.5-2.8,2.9-5.6,4.3-8.4c3.6-10.3,5.4-21,5-31.9
			C348,242.1,347.7,240.3,347.4,238.5z M238.6,270.1c-0.5,7.1-2.4,13.7-6.2,19.8c-6.9,11.2-20.7,12.4-29.5,2.5
			c-5-5.6-7.7-12.4-8.9-19.7c-1.2-7.2-1.3-14.5,0.3-21.8c0.6-5.7,2-11.1,4.7-16.2c3.2-6.2,7.6-10.9,15.2-11.4
			c8.1-0.4,14.1,3.5,18.3,10c5.3,8.4,7.7,17.6,6.9,27.5c0.1,0.3,0.1,0.7,0,1C239.4,264.4,238.9,267.3,238.6,270.1z M322.6,287.5
			c-10.9,17.5-33.7,15.4-43.9,3.7c2.8-14.1,7.7-27.7,15.7-40.2c3.2-5.9,7.2-11.1,12.1-15.6c2.6-2.3,5.4-4.3,8.9-5.3
			c5.7-1.6,9.2-0.2,11.8,5.2c0.9,1.8,1.4,3.7,2.1,5.6C333,257.3,331.6,273.1,322.6,287.5z"/>
		<path class="st19" d="M380.4,292.6c-6.9-4.3-14.5-18.9-12.3-31.4c13.6-1.8,27.4-3.7,40.2-9.6c2.4-1.8,5-3.3,7.2-5.3
			c10.6-9.6,8.8-24.3-4-30.4c-12.7-6.1-25-3.6-36.4,3.8c-17.2,11.2-29.7,38.7-22.6,64.1c1,1.2,1.3,2.7,1.9,4c3.8,8.4,9.4,15.2,18,19
			c11.8,5.3,23.1,3.3,33.7-3.1c6.4-3.8,12.2-8.5,15.2-15.8c-1.4-0.9-2.4-2.3-4.4-2.8C406.3,294.2,395,301.7,380.4,292.6z
			 M381.2,225.4c3.8-3.1,8.4-4,13.1-3.2c8.5,1.4,12.7,12.6,7.5,19.7c-1.5,2-3.4,3.7-5.6,4.8c-8.5,4.4-17.6,6.4-28,6.4
			C369.6,241.9,372.7,232.4,381.2,225.4z"/>
		<path class="st19" d="M138.5,330.4l-12.1,35.7h4.8l3.7-11.2h12.7l3.8,11.2h4.9L144,330.4H138.5z M135.8,351.3l3.5-10.3
			c0.7-2.2,1.3-4.3,1.8-6.5h0.1c0.5,2.1,1.1,4.2,1.9,6.5l3.5,10.3H135.8z"/>
		<path class="st19" d="M178.5,344.3h-0.1c-1.1-2.1-3.6-4.5-8-4.5c-5.9,0-11.6,4.9-11.6,13.6c0,7.1,4.6,12.5,10.9,12.5
			c4,0,6.7-1.9,8.2-4.3h0.1v2.9c0,6.5-3.5,9-8.3,9c-3.2,0-5.8-1-7.5-2l-1.2,3.6c2.1,1.4,5.5,2.1,8.5,2.1c3.2,0,6.8-0.7,9.3-3.1
			c2.5-2.2,3.7-5.8,3.7-11.7v-14.9c0-3.1,0.1-4,0.2-5.9h-4.1L178.5,344.3z M178,355.2c0,0.8-0.1,1.7-0.4,2.5c-1,3-3.6,4.8-6.5,4.8
			c-5,0-7.6-4.2-7.6-9.2c0-5.9,3.2-9.7,7.6-9.7c3.4,0,5.7,2.2,6.5,4.9c0.2,0.6,0.3,1.3,0.3,2.1V355.2z"/>
		<path class="st19" d="M200.5,339.9c-7.5,0-12,6.1-12,13.8s4.7,12.9,12.6,12.9c4.1,0,6.9-0.8,8.5-1.6l-0.8-3.3
			c-1.7,0.7-3.8,1.3-7.1,1.3c-4.7,0-8.7-2.6-8.8-8.9h18c0.1-0.5,0.2-1.2,0.2-2.2C211.1,347.2,208.9,339.9,200.5,339.9z M193,350.8
			c0.4-3.2,2.4-7.6,7.2-7.6c5.2,0,6.5,4.6,6.5,7.6H193z"/>
		<path class="st19" d="M239,328.5h-4.7v15.3h-0.1c-1.2-2.1-3.8-3.9-7.7-3.9c-6.3,0-11.6,5.2-11.5,13.8c0,7.8,4.8,13,11,13
			c4.2,0,7.3-2.2,8.7-5h0.1l0.2,4.5h4.2c-0.2-1.7-0.2-4.3-0.2-6.6V328.5z M234.4,355.3c0,0.7-0.1,1.4-0.2,2
			c-0.8,3.5-3.7,5.6-6.8,5.6c-5,0-7.6-4.3-7.6-9.5c0-5.7,2.9-9.9,7.7-9.9c3.5,0,6,2.4,6.7,5.4c0.2,0.6,0.2,1.4,0.2,2V355.3z"/>
		<path class="st19" d="M315,333.7c3,0,5.5,0.6,7.2,1.5l1.1-3.8c-1.2-0.6-4-1.6-8.5-1.6c-11.1,0-18.7,7.6-18.7,18.8
			c0,11.7,7.6,18.1,17.6,18.1c4.3,0,7.7-0.8,9.4-1.7l-1-3.7c-1.9,0.9-4.7,1.5-7.5,1.5c-8.7,0-13.7-5.6-13.7-14.4
			C301.1,339,306.6,333.7,315,333.7z"/>
		<path class="st19" d="M346.5,350.4c0-5.1-1.9-10.5-9.8-10.5c-3.2,0-3.9-0.2-6,1.2l1.1,3.1c1.8-1.2,1.9-0.8,4.3-0.8
			c5.2,0,5.8,3.8,5.8,5.9v0.5c-9.9-0.1-15.4,3.3-15.4,9.5c0,3.7,2.6,7.4,7.8,7.4c3.7,0,6.4-1.8,7.8-3.8h0.2l0.4,3.2h4.2
			c-0.3-1.7-0.4-3.9-0.4-6.1V350.4z M342,357.5c0,0.5-0.1,1-0.3,1.5c-0.7,2.2-2.9,4.3-6.2,4.3c-2.4,0-4.4-1.4-4.4-4.5
			c0-5,5.8-5.9,10.9-5.8V357.5z"/>
		<path class="st19" d="M358.3,345.5h-0.2l-0.2-5h-4.1c0.2,2.4,0.2,5,0.2,8v17.6h4.6v-13.7c0-0.8,0.1-1.5,0.2-2.2c0.6-3.5,3-6,6.3-6
			c0.6,0,3.3,0.6,3.8,0.7v-4.4c-0.4-0.1-3-0.7-3.5-0.7C362.3,339.9,359.5,342,358.3,345.5z"/>
		<path class="st19" d="M381,339.9c-7.5,0-12,6.1-12,13.8s4.7,12.9,12.6,12.9c4.1,0,6.9-0.8,8.5-1.6l-0.8-3.3
			c-1.7,0.7-3.8,1.3-7.1,1.3c-4.7,0-8.7-2.6-8.8-8.9h18c0.1-0.5,0.2-1.2,0.2-2.2C391.6,347.2,389.4,339.9,381,339.9z M373.5,350.8
			c0.4-3.2,2.4-7.6,7.2-7.6c5.2,0,6.5,4.6,6.5,7.6H373.5z"/>
	</g>
</g>
</svg>
